<svg width="24" height="24" viewBox="0 0 24 24" fill="none" xmlns="http://www.w3.org/2000/svg">
<path d="M12 22V10M20.42 12.37C21.29 12.72 21.83 13.75 21.63 14.66L21.22 16.52C20.51 19.72 18 22 14.38 22H9.61998C5.99998 22 3.48998 19.72 2.77998 16.52L2.36998 14.66C2.16998 13.75 2.70998 12.72 3.57998 12.37L4.99998 11.8L10.51 9.59C11.47 9.21 12.53 9.21 13.49 9.59L19 11.8L20.42 12.37Z" stroke="#868686" stroke-width="1.5" stroke-linecap="round" stroke-linejoin="round"/>
<path d="M19 8V11.8L13.49 9.59C12.53 9.21 11.47 9.21 10.51 9.59L5 11.8V8C5 6.35 6.35 5 8 5H16C17.65 5 19 6.35 19 8ZM14.5 5H9.5V3C9.5 2.45 9.95 2 10.5 2H13.5C14.05 2 14.5 2.45 14.5 3V5Z" stroke="#868686" stroke-width="1.5" stroke-linecap="round" stroke-linejoin="round"/>
</svg>
