<svg width="16" height="17" viewBox="0 0 16 17" fill="none" xmlns="http://www.w3.org/2000/svg">
<path d="M6.02001 14.96L7.57335 13.6533C7.80668 13.4533 8.19335 13.4533 8.42668 13.6533L9.98001 14.96C10.34 15.14 10.78 14.96 10.9133 14.5733L11.2067 13.6866C11.28 13.4733 11.2067 13.16 11.0467 13L9.53335 11.48C9.42001 11.3733 9.33335 11.16 9.33335 11.0066V9.10663C9.33335 8.82663 9.54001 8.6933 9.80001 8.79997L13.0733 10.2133C13.5867 10.4333 14.0067 10.16 14.0067 9.59997V8.73997C14.0067 8.2933 13.6733 7.77997 13.26 7.60663L9.53335 5.99997C9.47623 5.97064 9.42775 5.92694 9.39267 5.87316C9.3576 5.81938 9.33715 5.75739 9.33335 5.6933V3.6933C9.33335 3.06663 8.87335 2.32663 8.31335 2.03997C8.11335 1.93997 7.88001 1.93997 7.68001 2.03997C7.12001 2.32663 6.66001 3.0733 6.66001 3.69997V5.69997C6.66001 5.81997 6.56668 5.95997 6.46001 6.00663L2.74001 7.6133C2.32668 7.77997 1.99335 8.2933 1.99335 8.73997V9.59997C1.99335 10.16 2.41335 10.4333 2.92668 10.2133L6.20001 8.79997C6.45335 8.68663 6.66668 8.82663 6.66668 9.10663V11.0066C6.66668 11.16 6.58001 11.3733 6.47335 11.48L4.96001 13C4.80001 13.16 4.72668 13.4666 4.80001 13.6866L5.09335 14.5733C5.21335 14.96 5.65335 15.1466 6.02001 14.96Z" stroke="#565656" stroke-width="1.1" stroke-linecap="round" stroke-linejoin="round"/>
</svg>
