<svg width="33" height="27" viewBox="0 0 33 27" fill="none" xmlns="http://www.w3.org/2000/svg">
<path d="M24.2135 23.8485L24.819 23.3969C25.0962 23.1901 25.266 22.8698 25.2816 22.5244L25.7775 11.4929L31.6963 6.18048C32.1401 5.78211 32.207 5.11101 31.8504 4.63292L31.6472 4.36033C31.2905 3.88223 30.6283 3.75491 30.1199 4.06673L23.3401 8.22479L13.0862 6.17636C12.7657 6.11232 12.433 6.18736 12.1709 6.38278L11.6007 6.80806C10.8822 7.34393 11.023 8.45876 11.8522 8.79918L18.7646 11.6371L14.7197 15.0859C14.4835 15.2874 14.176 15.385 13.8668 15.3568L11.0421 15.0992C10.9393 15.0898 10.8341 15.09 10.7373 15.1258C10.6585 15.1548 10.5841 15.1952 10.5164 15.2457C9.99223 15.6366 10.0627 16.4424 10.6467 16.7364L13.3513 18.0902C13.5239 18.1766 13.6419 18.3437 13.6655 18.5353L13.9935 21.1984C14.1115 21.8574 14.8818 22.162 15.4185 21.7616C15.4654 21.7266 15.5086 21.6874 15.5477 21.6442C15.6224 21.5616 15.6627 21.4554 15.6914 21.3477L16.4533 18.4872C16.5244 18.2203 16.6891 17.9876 16.9173 17.8318L21.2024 14.9053L22.3812 23.0779C22.4985 23.9492 23.5087 24.3741 24.2135 23.8485Z" fill="black"/>
<line x1="11.0126" y1="10.6305" x2="1.86169" y2="17.4552" stroke="black"/>
<line x1="19.9534" y1="21.2548" x2="14.7243" y2="25.1546" stroke="black"/>
<line x1="9.84949" y1="18.6183" x2="4.62041" y2="22.5182" stroke="black"/>
</svg>
