<svg width="13" height="13" viewBox="0 0 13 13" fill="none" xmlns="http://www.w3.org/2000/svg">
<path d="M7.33333 1.19585L8.43333 3.39585C8.58333 3.7021 8.98333 3.99585 9.32083 4.0521L11.3146 4.38335C12.5896 4.59585 12.8896 5.52085 11.9708 6.43335L10.4208 7.98335C10.1583 8.24585 10.0146 8.7521 10.0958 9.1146L10.5396 11.0333C10.8896 12.5521 10.0833 13.1396 8.73958 12.3459L6.87083 11.2396C6.53333 11.0396 5.97708 11.0396 5.63333 11.2396L3.76458 12.3459C2.42708 13.1396 1.61458 12.5459 1.96458 11.0333L2.40833 9.1146C2.48958 8.7521 2.34583 8.24585 2.08333 7.98335L0.533329 6.43335C-0.379171 5.52085 -0.0854205 4.59585 1.18958 4.38335L3.18333 4.0521C3.51458 3.99585 3.91458 3.7021 4.06458 3.39585L5.16458 1.19585C5.76458 0.00209963 6.73958 0.00209963 7.33333 1.19585Z" fill="#9747FF"/>
</svg>
