<svg width="14" height="13" viewBox="0 0 14 13" fill="none" xmlns="http://www.w3.org/2000/svg">
<path d="M7.83199 1.19585L8.93199 3.39585C9.08199 3.7021 9.48199 3.99585 9.81949 4.0521L11.8132 4.38335C13.0882 4.59585 13.3882 5.52085 12.4695 6.43335L10.9195 7.98335C10.657 8.24585 10.5132 8.7521 10.5945 9.1146L11.0382 11.0333C11.3882 12.5521 10.582 13.1396 9.23824 12.3459L7.36949 11.2396C7.03199 11.0396 6.47574 11.0396 6.13199 11.2396L4.26324 12.3459C2.92574 13.1396 2.11324 12.5459 2.46324 11.0333L2.90699 9.1146C2.98824 8.7521 2.84449 8.24585 2.58199 7.98335L1.03199 6.43335C0.119487 5.52085 0.413237 4.59585 1.68824 4.38335L3.68199 4.0521C4.01324 3.99585 4.41324 3.7021 4.56324 3.39585L5.66324 1.19585C6.26324 0.00209963 7.23824 0.00209963 7.83199 1.19585Z" fill="#9747FF"/>
</svg>
