<svg width="32" height="32" viewBox="0 0 32 32" fill="none" xmlns="http://www.w3.org/2000/svg">
<path d="M16 29.3333V13.3333M27.2266 16.4933C28.3866 16.96 29.1066 18.3333 28.84 19.5467L28.2933 22.0267C27.3466 26.2933 24 29.3333 19.1733 29.3333H12.8266C7.99998 29.3333 4.65331 26.2933 3.70664 22.0267L3.15998 19.5467C2.89331 18.3333 3.61331 16.96 4.77331 16.4933L6.66664 15.7333L14.0133 12.7867C15.2933 12.28 16.7066 12.28 17.9866 12.7867L25.3333 15.7333L27.2266 16.4933Z" stroke="#0075FF" stroke-width="2" stroke-linecap="round" stroke-linejoin="round"/>
<path d="M25.3333 10.6667V15.7333L17.9866 12.7867C16.7066 12.28 15.2933 12.28 14.0133 12.7867L6.66663 15.7333V10.6667C6.66663 8.46666 8.46663 6.66666 10.6666 6.66666H21.3333C23.5333 6.66666 25.3333 8.46666 25.3333 10.6667ZM19.3333 6.66666H12.6666V3.99999C12.6666 3.26666 13.2666 2.66666 14 2.66666H18C18.7333 2.66666 19.3333 3.26666 19.3333 3.99999V6.66666Z" stroke="#0075FF" stroke-width="2" stroke-linecap="round" stroke-linejoin="round"/>
</svg>
