<svg width="17" height="17" viewBox="0 0 17 17" fill="none" xmlns="http://www.w3.org/2000/svg">
<path d="M8.49998 9.51293C8.7902 9.51293 9.07758 9.45576 9.34571 9.3447C9.61384 9.23364 9.85747 9.07085 10.0627 8.86563C10.2679 8.66041 10.4307 8.41679 10.5418 8.14866C10.6528 7.88053 10.71 7.59315 10.71 7.30293C10.71 7.0127 10.6528 6.72533 10.5418 6.4572C10.4307 6.18907 10.2679 5.94544 10.0627 5.74022C9.85747 5.535 9.61384 5.37222 9.34571 5.26115C9.07758 5.15009 8.7902 5.09293 8.49998 5.09293C7.91385 5.09293 7.35173 5.32576 6.93727 5.74022C6.52282 6.15468 6.28998 6.7168 6.28998 7.30293C6.28998 7.88905 6.52282 8.45118 6.93727 8.86563C7.35173 9.28009 7.91385 9.51293 8.49998 9.51293Z" stroke="#565656" stroke-width="1.1875"/>
<path d="M2.56416 6.01376C3.95958 -0.12041 13.0475 -0.113326 14.4358 6.02084C15.2504 9.61917 13.0121 12.665 11.05 14.5492C10.3644 15.2104 9.44899 15.5799 8.49646 15.5799C7.54392 15.5799 6.62853 15.2104 5.94291 14.5492C3.98791 12.665 1.74958 9.61209 2.56416 6.01376Z" stroke="#565656" stroke-width="1.1875"/>
</svg>
