<svg width="65" height="66" viewBox="0 0 65 66" fill="none" xmlns="http://www.w3.org/2000/svg">
<path d="M27.0833 60.0833H37.9167C51.4583 60.0833 56.875 54.6666 56.875 41.125V24.875C56.875 11.3333 51.4583 5.91663 37.9167 5.91663H27.0833C13.5417 5.91663 8.125 11.3333 8.125 24.875V41.125C8.125 54.6666 13.5417 60.0833 27.0833 60.0833Z" stroke="#5C5C5C" stroke-width="3.5" stroke-linecap="round" stroke-linejoin="round"/>
<path d="M46.7187 22.9521C42.8004 19.4712 37.7412 17.5486 32.5 17.5486C27.2588 17.5486 22.1996 19.4712 18.2812 22.9521L24.1854 32.4312C26.4742 30.3905 29.4335 29.2627 32.5 29.2627C35.5665 29.2627 38.5258 30.3905 40.8146 32.4312L46.7187 22.9521Z" stroke="#5C5C5C" stroke-width="3.5" stroke-linecap="round" stroke-linejoin="round"/>
</svg>
