<svg width="28" height="28" viewBox="0 0 28 28" fill="none" xmlns="http://www.w3.org/2000/svg">
<path d="M9.33336 7.00001V6.06668C9.33336 4.00168 9.33335 2.33334 13.0667 2.33334H14.9334C18.6667 2.33334 18.6667 4.00168 18.6667 6.06668V7.00001M9.33336 25.6667H18.6667C23.3567 25.6667 24.1967 23.7883 24.4417 21.5017L25.3167 12.1683C25.6317 9.32168 24.815 7.00001 19.8334 7.00001H8.16669C3.18502 7.00001 2.36835 9.32168 2.68335 12.1683L3.55835 21.5017C3.80335 23.7883 4.64336 25.6667 9.33336 25.6667Z" stroke="#FF4747" stroke-width="1.5" stroke-miterlimit="10" stroke-linecap="round" stroke-linejoin="round"/>
<path d="M16.3333 16.3567V15.1667C16.3333 14 16.3333 14 15.1666 14H12.8333C11.6666 14 11.6666 14 11.6666 15.1667V16.3683M16.3333 16.3567C16.3333 17.6283 16.3216 18.6667 14 18.6667C11.69 18.6667 11.6666 17.64 11.6666 16.3683M16.3333 16.3567C19.5582 15.9552 22.6288 14.743 25.2583 12.8333M11.6666 16.3683C8.64497 16.03 5.68164 14.945 3.05664 13.1483" stroke="#FF4747" stroke-width="1.5" stroke-miterlimit="10" stroke-linecap="round" stroke-linejoin="round"/>
</svg>
