<svg width="24" height="24" viewBox="0 0 24 24" fill="none" xmlns="http://www.w3.org/2000/svg">
<path d="M22 12C22 6.48 17.52 2 12 2C6.48 2 2 6.48 2 12C2 17.52 6.48 22 12 22" stroke="#FF6813" stroke-width="1.5" stroke-linecap="round" stroke-linejoin="round"/>
<path d="M8.00001 3H9.00001C7.05004 8.84157 7.05004 15.1584 9.00001 21H8.00001M15 3C15.97 5.92 16.46 8.96 16.46 12" stroke="#FF6813" stroke-width="1.5" stroke-linecap="round" stroke-linejoin="round"/>
<path d="M3 16V15C5.92 15.97 8.96 16.46 12 16.46M3 9.00001C8.84157 7.05004 15.1584 7.05004 21 9.00001M22 22L21 21M18.2 21.4C19.0487 21.4 19.8626 21.0629 20.4627 20.4628C21.0629 19.8626 21.4 19.0487 21.4 18.2C21.4 17.3513 21.0629 16.5374 20.4627 15.9373C19.8626 15.3372 19.0487 15 18.2 15C17.3513 15 16.5374 15.3372 15.9373 15.9373C15.3371 16.5374 15 17.3513 15 18.2C15 19.0487 15.3371 19.8626 15.9373 20.4628C16.5374 21.0629 17.3513 21.4 18.2 21.4Z" stroke="#FF6813" stroke-width="1.5" stroke-linecap="round" stroke-linejoin="round"/>
</svg>
