<svg width="12" height="12" viewBox="0 0 12 12" fill="none" xmlns="http://www.w3.org/2000/svg">
<path d="M6.74391 1.8478L7.60467 3.56932C7.72205 3.80896 8.03505 4.03882 8.29914 4.08284L9.85926 4.34204C10.857 4.50832 11.0917 5.23214 10.3728 5.94618L9.1599 7.15906C8.95449 7.36447 8.84201 7.76061 8.90559 8.04427L9.25282 9.5457C9.5267 10.7341 8.8958 11.1939 7.84431 10.5727L6.382 9.7071C6.11791 9.55059 5.68264 9.55059 5.41365 9.7071L3.95135 10.5727C2.90474 11.1939 2.26896 10.7292 2.54284 9.5457L2.89007 8.04427C2.95365 7.76061 2.84117 7.36447 2.63576 7.15906L1.42287 5.94618C0.708838 5.23214 0.938699 4.50832 1.93639 4.34204L3.49651 4.08284C3.75572 4.03882 4.06872 3.80896 4.1861 3.56932L5.04685 1.8478C5.51636 0.913688 6.2793 0.913688 6.74391 1.8478Z" fill="black"/>
</svg>
