<svg width="48" height="48" viewBox="0 0 48 48" fill="none" xmlns="http://www.w3.org/2000/svg">
<path d="M17.3442 28.66C17.3442 31.24 19.3242 33.32 21.7842 33.32H26.8042C28.9442 33.32 30.6842 31.5 30.6842 29.26C30.6842 26.82 29.6242 25.96 28.0442 25.4L19.9842 22.6C18.4042 22.04 17.3442 21.18 17.3442 18.74C17.3442 16.5 19.0842 14.68 21.2242 14.68H26.2442C28.7042 14.68 30.6842 16.76 30.6842 19.34M24.0002 12V36" stroke="#6F57E9" stroke-width="3" stroke-linecap="round" stroke-linejoin="round"/>
<path d="M30 44H18C8 44 4 40 4 30V18C4 8 8 4 18 4H30C40 4 44 8 44 18V30C44 40 40 44 30 44Z" stroke="#6F57E9" stroke-width="3" stroke-linecap="round" stroke-linejoin="round"/>
</svg>
