<svg width="15" height="15" viewBox="0 0 15 15" fill="none" xmlns="http://www.w3.org/2000/svg">
<path d="M8.33608 2.19585L9.43608 4.39585C9.58608 4.7021 9.98608 4.99585 10.3236 5.0521L12.3173 5.38335C13.5923 5.59585 13.8923 6.52085 12.9736 7.43335L11.4236 8.98335C11.1611 9.24585 11.0173 9.7521 11.0986 10.1146L11.5423 12.0333C11.8923 13.5521 11.0861 14.1396 9.74233 13.3459L7.87358 12.2396C7.53608 12.0396 6.97983 12.0396 6.63608 12.2396L4.76733 13.3459C3.42983 14.1396 2.61733 13.5459 2.96733 12.0333L3.41108 10.1146C3.49233 9.7521 3.34858 9.24585 3.08608 8.98335L1.53608 7.43335C0.623576 6.52085 0.917326 5.59585 2.19233 5.38335L4.18608 5.0521C4.51733 4.99585 4.91733 4.7021 5.06733 4.39585L6.16733 2.19585C6.76733 1.0021 7.74233 1.0021 8.33608 2.19585Z" stroke="#808080" stroke-linecap="round" stroke-linejoin="round"/>
</svg>
