<svg width="13" height="13" viewBox="0 0 13 13" fill="none" xmlns="http://www.w3.org/2000/svg">
<path d="M7.33058 1.19585L8.43058 3.39585C8.58058 3.7021 8.98058 3.99585 9.31808 4.0521L11.3118 4.38335C12.5868 4.59585 12.8868 5.52085 11.9681 6.43335L10.4181 7.98335C10.1556 8.24585 10.0118 8.7521 10.0931 9.1146L10.5368 11.0333C10.8868 12.5521 10.0806 13.1396 8.73683 12.3459L6.86808 11.2396C6.53058 11.0396 5.97433 11.0396 5.63058 11.2396L3.76183 12.3459C2.42433 13.1396 1.61183 12.5459 1.96183 11.0333L2.40558 9.1146C2.48683 8.7521 2.34308 8.24585 2.08058 7.98335L0.530583 6.43335C-0.381917 5.52085 -0.088167 4.59585 1.18683 4.38335L3.18058 4.0521C3.51183 3.99585 3.91183 3.7021 4.06183 3.39585L5.16183 1.19585C5.76183 0.00209963 6.73683 0.00209963 7.33058 1.19585Z" fill="#9747FF"/>
</svg>
