<svg width="14" height="13" viewBox="0 0 14 13" fill="none" xmlns="http://www.w3.org/2000/svg">
<path d="M7.83473 1.19585L8.93473 3.39585C9.08473 3.7021 9.48473 3.99585 9.82223 4.0521L11.816 4.38335C13.091 4.59585 13.391 5.52085 12.4722 6.43335L10.9222 7.98335C10.6597 8.24585 10.516 8.7521 10.5972 9.1146L11.041 11.0333C11.391 12.5521 10.5847 13.1396 9.24098 12.3459L7.37223 11.2396C7.03473 11.0396 6.47848 11.0396 6.13473 11.2396L4.26598 12.3459C2.92848 13.1396 2.11598 12.5459 2.46598 11.0333L2.90973 9.1146C2.99098 8.7521 2.84723 8.24585 2.58473 7.98335L1.03473 6.43335C0.122233 5.52085 0.415983 4.59585 1.69098 4.38335L3.68473 4.0521C4.01598 3.99585 4.41598 3.7021 4.56598 3.39585L5.66598 1.19585C6.26598 0.00209963 7.24098 0.00209963 7.83473 1.19585Z" fill="#9747FF"/>
</svg>
