<svg width="1440" height="1024" viewBox="0 0 1440 1024" fill="none" xmlns="http://www.w3.org/2000/svg">
<g clip-path="url(#clip0_1_306)">
<path d="M497.293 932.517C410.519 934.484 366.453 862.627 281.384 879.84C216.523 892.964 201.201 960.702 135.192 965.44C74.655 969.786 -11 912.763 -11 912.763V1750H1622V912.763C1622 912.763 1559.15 895.808 1517.84 893.009C1432.56 887.231 1387.78 939.373 1302.59 932.517C1218.05 925.714 1182.65 857.246 1097.88 860.086C1028.18 862.421 998.653 910.767 929.442 919.348C836.824 930.83 786.883 873.74 693.755 879.84C614.485 885.032 576.712 930.717 497.293 932.517Z" fill="#7357FF"/>
<path d="M327.293 945.517C240.519 947.484 196.453 875.627 111.384 892.84C46.5227 905.964 31.2009 973.702 -34.8079 978.44C-95.345 982.786 -181 925.763 -181 925.763V1763H1452V925.763C1452 925.763 1389.15 908.808 1347.84 906.009C1262.56 900.231 1217.78 952.373 1132.59 945.517C1048.05 938.714 1012.65 870.246 927.884 873.086C858.181 875.421 828.653 923.767 759.442 932.348C666.824 943.83 616.883 886.74 523.755 892.84C444.485 898.032 406.712 943.717 327.293 945.517Z" fill="#8C76FF"/>
</g>
<defs>
<clipPath id="clip0_1_306">
<rect width="1440" height="1024" fill="white"/>
</clipPath>
</defs>
</svg>
