<svg width="219" height="35" viewBox="0 0 219 35" fill="none" xmlns="http://www.w3.org/2000/svg">
<g clip-path="url(#clip0_1_1091)">
<path d="M36.1912 32.529L27.3614 17.4088L35.7718 2.30994C35.8595 2.13714 35.9051 1.94719 35.9051 1.75468C35.9051 1.56218 35.8595 1.37223 35.7718 1.19942C35.6965 1.03211 35.5733 0.889027 35.417 0.786913C35.2606 0.684799 35.0774 0.627876 34.8888 0.622803H23.8515C23.6688 0.628624 23.4909 0.681071 23.3358 0.77483C23.1807 0.868589 23.054 1.00033 22.9685 1.15671L19.8119 6.94424L25.1981 16.2128C25.432 16.6174 25.5548 17.0733 25.5548 17.5369C25.5548 18.0005 25.432 18.4564 25.1981 18.861L20.1651 27.9374L23.5646 33.7249C23.6493 33.8756 23.7733 34.0023 23.9244 34.0922C24.0754 34.1821 24.2482 34.2322 24.4255 34.2375H35.4407C35.6307 34.2269 35.8144 34.1679 35.9732 34.0667C36.1321 33.9655 36.2606 33.8255 36.3458 33.6609C36.4387 33.4858 36.4872 33.2917 36.4872 33.0949C36.4872 32.898 36.4387 32.7041 36.3458 32.529" fill="#FFE600"/>
<path d="M22.4169 16.9817L17.4942 8.54595L13.2338 1.11399C13.1455 0.961597 13.0176 0.83415 12.8627 0.744256C12.7078 0.654362 12.5314 0.605134 12.3508 0.60144H1.46807C1.28013 0.608999 1.09805 0.666915 0.94214 0.768729C0.786229 0.870543 0.662616 1.01225 0.585084 1.17806C0.492122 1.35315 0.443634 1.54716 0.443634 1.744C0.443634 1.94084 0.492122 2.13484 0.585084 2.30994L9.41491 17.5583L0.982429 32.5076C0.889603 32.6789 0.841115 32.8695 0.841115 33.0629C0.841115 33.2563 0.889603 33.4468 0.982429 33.6181C1.06305 33.7859 1.18419 33.9324 1.33562 34.0453C1.40888 34.0358 1.48311 34.0358 1.55637 34.0453C1.65915 34.0547 1.76263 34.0547 1.86541 34.0453H12.9027C13.0889 34.0421 13.2704 33.9883 13.4265 33.8901C13.5827 33.792 13.7071 33.6533 13.7857 33.49L17.7812 26.3784L22.4169 18.199C22.5193 18.0191 22.573 17.817 22.573 17.6116C22.573 17.4063 22.5193 17.2043 22.4169 17.0243" fill="#FFE600"/>
<path d="M51.6641 16.9685L47.0131 9.50122C46.9687 9.4334 46.9443 9.35368 46.9425 9.27172C46.9411 9.18976 46.9624 9.1091 47.0045 9.03949C47.0461 8.96988 47.1067 8.91436 47.1787 8.8796C47.2506 8.84484 47.3307 8.83236 47.409 8.84363H50.7736C50.8469 8.84972 50.918 8.87253 50.9813 8.91047C51.0451 8.94836 51.0994 9.00043 51.141 9.06284L53.7849 13.4468L56.4708 9.06284C56.5111 8.99887 56.5654 8.94563 56.6291 8.90756C56.6929 8.86945 56.7649 8.84752 56.8382 8.84363H60.2028C60.5987 8.84363 60.811 9.19437 60.5987 9.50122L55.9197 16.9685L60.7544 24.845C60.801 24.9107 60.8282 24.989 60.8327 25.0703C60.8372 25.1517 60.8191 25.2327 60.7802 25.3036C60.7417 25.3745 60.6838 25.4324 60.6141 25.4703C60.544 25.5082 60.4653 25.5244 60.387 25.5171H57.2201C57.1427 25.5133 57.0667 25.4916 56.9984 25.4537C56.9296 25.4158 56.8703 25.3626 56.8242 25.298L53.8129 20.4902L50.8161 25.298C50.7691 25.3619 50.7098 25.4145 50.6415 25.4524C50.5732 25.4902 50.4976 25.5123 50.4202 25.5171H47.2253C46.8294 25.5171 46.6171 25.1518 46.8294 24.845L51.6641 16.9685Z" fill="black"/>
<path d="M71.9075 8.87511C72.9062 8.84268 73.9012 9.01572 74.8342 9.38404C75.7672 9.7524 76.6197 10.3087 77.3418 11.0204C77.3862 11.0617 77.4215 11.1121 77.4459 11.1684C77.4699 11.2246 77.4825 11.2856 77.4825 11.3471C77.4825 11.4087 77.4699 11.4696 77.4459 11.5259C77.4215 11.5822 77.3862 11.6326 77.3418 11.6739L75.5898 13.5493C75.5134 13.6232 75.4124 13.6643 75.3075 13.6643C75.2025 13.6643 75.1011 13.6232 75.0247 13.5493C74.1871 12.7869 73.108 12.3674 71.9903 12.3701C70.7723 12.3701 69.604 12.8685 68.7429 13.7558C67.8814 14.643 67.3977 15.8463 67.3977 17.1011C67.3977 18.3558 67.8814 19.5592 68.7429 20.4464C69.604 21.3336 70.7723 21.8321 71.9903 21.8321C73.0858 21.827 74.1469 21.436 74.9971 20.7239C75.0758 20.649 75.1794 20.6074 75.2867 20.6074C75.3939 20.6074 75.4975 20.649 75.5762 20.7239L77.3418 22.6418C77.4138 22.7292 77.4531 22.8399 77.4531 22.9544C77.4531 23.0689 77.4138 23.1797 77.3418 23.267C75.8645 24.7391 73.8799 25.5466 71.8247 25.5117C70.7343 25.5581 69.646 25.3769 68.6257 24.9791C67.6049 24.5813 66.6728 23.975 65.8855 23.1966C65.0982 22.4183 64.4715 21.4841 64.0435 20.45C63.6154 19.4159 63.3946 18.3034 63.3946 17.1792C63.3946 16.0551 63.6154 14.9425 64.0435 13.9084C64.4715 12.8744 65.0982 11.9401 65.8855 11.1617C66.6728 10.3835 67.6049 9.77714 68.6257 9.3793C69.646 8.98145 70.7343 8.80031 71.8247 8.84671L71.9075 8.87511Z" fill="black"/>
<path d="M88.9805 8.83965C90.6275 8.83401 92.2393 9.31802 93.6116 10.2303C94.984 11.1426 96.0555 12.4423 96.6903 13.9648C97.3251 15.4874 97.4948 17.1643 97.1781 18.7835C96.8609 20.4027 96.0718 21.8914 94.9103 23.0611C93.7487 24.2308 92.2669 25.0291 90.652 25.3547C89.0375 25.6805 87.3625 25.519 85.8394 24.8908C84.3168 24.2626 83.0137 23.196 82.0961 21.8258C81.1784 20.4556 80.687 18.8435 80.6843 17.1935C80.6807 16.099 80.8925 15.0145 81.3074 14.002C81.7223 12.9896 82.3327 12.0691 83.1033 11.2932C83.8738 10.5172 84.7897 9.90116 85.7982 9.48019C86.8064 9.05917 87.8878 8.84148 88.9805 8.83965ZM88.9805 21.7966C89.8972 21.8022 90.795 21.5347 91.5597 21.0279C92.3243 20.5212 92.9212 19.7981 93.2746 18.9506C93.6279 18.1032 93.7221 17.1696 93.5447 16.2685C93.3669 15.3675 92.9261 14.5396 92.2777 13.8902C91.6298 13.2407 90.8031 12.799 89.9036 12.6212C89.0045 12.4434 88.0724 12.5375 87.2267 12.8916C86.3806 13.2456 85.6589 13.8437 85.153 14.6097C84.6471 15.3757 84.3802 16.275 84.3856 17.1935C84.3933 18.412 84.8797 19.5785 85.7399 20.4401C86.5996 21.3018 87.7643 21.7892 88.9805 21.7966Z" fill="black"/>
<path d="M99.94 9.44732C99.9065 9.38147 99.8911 9.30797 99.8957 9.23429C99.9002 9.16065 99.9242 9.08947 99.9658 9.02809C100.007 8.96667 100.064 8.91723 100.131 8.88485C100.199 8.85241 100.273 8.83818 100.348 8.84355H103.509C103.592 8.8466 103.673 8.87241 103.743 8.91809C103.812 8.96376 103.867 9.02751 103.902 9.10231L107.82 17.7274H107.966L111.885 9.10231C111.922 9.02639 111.98 8.96211 112.052 8.91647C112.123 8.87084 112.207 8.84561 112.292 8.84355H115.439C115.515 8.83295 115.592 8.84378 115.662 8.87478C115.732 8.90583 115.792 8.95575 115.835 9.01883C115.878 9.08196 115.901 9.15564 115.903 9.23142C115.905 9.30725 115.886 9.3821 115.846 9.44732L108.389 25.2601C108.357 25.337 108.302 25.4027 108.232 25.4488C108.162 25.4949 108.08 25.5193 107.996 25.5188H107.762C107.676 25.5202 107.591 25.4964 107.519 25.4504C107.446 25.4043 107.389 25.3381 107.354 25.2601L99.94 9.44732Z" fill="black"/>
<path d="M118.465 9.29395C118.469 9.17459 118.518 9.06118 118.603 8.97672C118.688 8.8923 118.803 8.84327 118.923 8.8396H128.893C129.015 8.8396 129.131 8.88747 129.217 8.97265C129.303 9.05787 129.351 9.17343 129.351 9.29395V11.8735C129.351 11.994 129.303 12.1096 129.217 12.1948C129.131 12.28 129.015 12.3279 128.893 12.3279H122.231V15.2592H127.711C127.832 15.2629 127.946 15.3119 128.031 15.3963C128.116 15.4808 128.166 15.5942 128.169 15.7135V18.3224C128.169 18.4429 128.121 18.5585 128.035 18.6437C127.949 18.7289 127.833 18.7768 127.711 18.7768H122.231V22.0013H128.893C129.015 22.0013 129.131 22.0491 129.217 22.1343C129.303 22.2195 129.351 22.3351 129.351 22.4556V25.0645C129.351 25.185 129.303 25.3006 129.217 25.3857C129.131 25.471 129.015 25.5188 128.893 25.5188H118.923C118.803 25.5152 118.688 25.4661 118.603 25.3817C118.518 25.2973 118.469 25.1838 118.465 25.0645V9.29395Z" fill="black"/>
<path d="M133.833 9.29399C133.833 9.17378 133.881 9.05854 133.966 8.97358C134.052 8.88863 134.167 8.84089 134.288 8.84089H141.425C142.65 8.81338 143.843 9.22621 144.788 10.004C145.732 10.7817 146.364 11.8723 146.569 13.0766C146.773 14.2808 146.536 15.5183 145.902 16.5628C145.267 17.6073 144.276 18.389 143.111 18.7652L146.379 24.8162C146.425 24.8867 146.452 24.9688 146.454 25.0533C146.456 25.1377 146.435 25.2211 146.392 25.294C146.349 25.367 146.287 25.4266 146.212 25.4661C146.138 25.5057 146.053 25.5236 145.968 25.5178H142.788C142.712 25.5151 142.637 25.4937 142.57 25.4555C142.504 25.4172 142.448 25.3634 142.407 25.2985L139.241 18.9844H137.585V25.0208C137.578 25.1387 137.528 25.25 137.445 25.3335C137.361 25.417 137.249 25.467 137.131 25.4739H134.288C134.167 25.4739 134.052 25.4262 133.966 25.3412C133.881 25.2562 133.833 25.141 133.833 25.0208V9.29399ZM141.161 15.9589C141.65 15.9328 142.11 15.7216 142.448 15.3685C142.786 15.0153 142.976 14.5469 142.979 14.0588C142.975 13.5793 142.782 13.1206 142.442 12.7814C142.102 12.4424 141.642 12.2502 141.161 12.2464H137.585V15.9589H141.161Z" fill="black"/>
<path d="M152.091 21.6698C152.694 21.6889 153.264 21.9051 153.681 22.2724C154.098 22.6397 154.328 23.1292 154.324 23.6374C154.309 24.1387 154.063 24.6155 153.638 24.9666C153.213 25.3178 152.642 25.5158 152.047 25.5189C151.462 25.5062 150.905 25.3031 150.495 24.9523C150.083 24.6015 149.85 24.1302 149.843 23.6374C149.837 23.3838 149.89 23.1318 150 22.8957C150.11 22.6596 150.274 22.444 150.483 22.2613C150.691 22.0786 150.941 21.9323 151.217 21.8308C151.493 21.7293 151.79 21.6746 152.091 21.6698Z" fill="black"/>
<path d="M165.131 8.87511C166.177 8.84237 167.22 9.01518 168.197 9.3835C169.175 9.75182 170.069 10.3083 170.826 11.0204C170.873 11.0617 170.91 11.1121 170.935 11.1684C170.961 11.2246 170.974 11.2856 170.974 11.3471C170.974 11.4087 170.961 11.4696 170.935 11.5259C170.91 11.5822 170.873 11.6326 170.826 11.6739L168.981 13.5493C168.943 13.5871 168.898 13.6171 168.849 13.6376C168.799 13.6581 168.746 13.6687 168.692 13.6687C168.639 13.6687 168.586 13.6581 168.536 13.6376C168.487 13.6171 168.442 13.5871 168.404 13.5493C167.527 12.7892 166.4 12.37 165.232 12.3701C163.959 12.3701 162.737 12.8685 161.837 13.7558C160.936 14.643 160.43 15.8463 160.43 17.1011C160.43 18.3558 160.936 19.5592 161.837 20.4464C162.737 21.3336 163.959 21.8321 165.232 21.8321C166.382 21.8291 167.496 21.438 168.39 20.7239C168.472 20.649 168.58 20.6074 168.692 20.6074C168.805 20.6074 168.913 20.649 168.995 20.7239L170.826 22.6418C170.908 22.7263 170.953 22.8382 170.953 22.9544C170.953 23.0707 170.908 23.1825 170.826 23.267C169.281 24.7378 167.207 25.545 165.059 25.5117C163.919 25.5581 162.781 25.3769 161.714 24.9791C160.647 24.5813 159.673 23.975 158.85 23.1966C158.026 22.4183 157.371 21.4841 156.924 20.45C156.476 19.4159 156.246 18.3034 156.246 17.1792C156.246 16.0551 156.476 14.9425 156.924 13.9084C157.371 12.8744 158.026 11.9401 158.85 11.1617C159.673 10.3835 160.647 9.77714 161.714 9.3793C162.781 8.98145 163.919 8.80031 165.059 8.84671L165.131 8.87511Z" fill="black"/>
<path d="M182.472 8.83965C184.119 8.83401 185.731 9.31802 187.103 10.2303C188.475 11.1426 189.547 12.4423 190.182 13.9648C190.816 15.4874 190.986 17.1643 190.669 18.7835C190.352 20.4027 189.563 21.8914 188.402 23.0611C187.24 24.2308 185.758 25.0291 184.143 25.3547C182.529 25.6805 180.854 25.519 179.331 24.8908C177.808 24.2626 176.505 23.196 175.587 21.8258C174.67 20.4556 174.178 18.8435 174.176 17.1935C174.172 16.099 174.384 15.0145 174.799 14.002C175.214 12.9896 175.824 12.0691 176.595 11.2932C177.365 10.5172 178.281 9.90116 179.29 9.48019C180.298 9.05917 181.38 8.84148 182.472 8.83965ZM182.472 21.7966C183.388 21.7994 184.284 21.5294 185.047 21.021C185.81 20.5125 186.405 19.7885 186.756 18.9407C187.107 18.093 187.199 17.1599 187.02 16.2597C186.841 15.3596 186.399 14.533 185.75 13.885C185.101 13.237 184.275 12.7968 183.376 12.6201C182.477 12.4435 181.546 12.5384 180.7 12.8929C179.855 13.2474 179.134 13.8455 178.629 14.6111C178.124 15.3769 177.857 16.2757 177.863 17.1935C177.874 18.4133 178.364 19.5798 179.226 20.441C180.088 21.3023 181.254 21.7892 182.472 21.7966Z" fill="black"/>
<path d="M196.643 9.20649C196.656 9.10663 196.705 9.01483 196.782 8.94759C196.859 8.88035 196.957 8.84206 197.06 8.8396H197.434C197.515 8.84389 197.594 8.86658 197.663 8.90577C197.734 8.94495 197.793 8.99962 197.838 9.06539L203.283 18.9431L208.727 9.06539C208.772 8.99962 208.832 8.94495 208.902 8.90577C208.972 8.86658 209.05 8.84389 209.131 8.8396H209.505C209.608 8.84206 209.707 8.88035 209.783 8.94759C209.859 9.01483 209.909 9.10663 209.923 9.20649L212.588 24.7286C212.601 24.792 212.599 24.8576 212.583 24.9203C212.566 24.983 212.535 25.0411 212.492 25.0901C212.449 25.1392 212.395 25.1779 212.334 25.2033C212.273 25.2287 212.207 25.2401 212.141 25.2366H209.361C209.256 25.2304 209.156 25.1914 209.076 25.1253C208.996 25.0593 208.939 24.9697 208.915 24.8697L207.863 17.8142L203.917 25.2648C203.873 25.3337 203.813 25.3922 203.744 25.4361C203.674 25.48 203.595 25.5083 203.513 25.5188H203.095C203.012 25.5126 202.932 25.4862 202.861 25.4418C202.79 25.3975 202.732 25.3367 202.692 25.2648L198.731 17.6731L197.694 24.7286C197.674 24.8308 197.619 24.9231 197.537 24.99C197.456 25.0568 197.353 25.0941 197.248 25.0955H194.482C194.416 25.099 194.35 25.0876 194.289 25.0622C194.228 25.0368 194.174 24.9981 194.131 24.949C194.088 24.8999 194.057 24.8418 194.04 24.7792C194.024 24.7165 194.022 24.6509 194.035 24.5875L196.643 9.20649Z" fill="black"/>
</g>
<defs>
<clipPath id="clip0_1_1091">
<rect width="219" height="34" fill="white" transform="translate(0 0.5)"/>
</clipPath>
</defs>
</svg>
